<?xml version="1.0" encoding="UTF-8"?>
<svg id="Calque_1" data-name="Calque 1" xmlns="http://www.w3.org/2000/svg" viewBox="0 0 118.25 126.88">
  <defs>
    <style>
      .cls-1 {
        fill: #fff;
      }
    </style>
  </defs>
  <path class="cls-1" d="M20.36,126.75c1.5.19,3.5.13,5.03.07,24.12-1.02,48.26-4.51,72.38-5.56,12.92-.85,19.59-11.8,20.41-23.93.28-4.23-.43-9.31-.56-13.6-.46-15.35-.96-30.65-1.6-45.97-.5-12.03.68-30.21-12.44-36.08C98.34-.66,94.73.01,89.3.37c-24.74,1.64-49.53,3.58-74.2,5.9C5.52,9.96-.2,15.45,0,26.36c.53,28.37,2.01,56.66,2.72,85.08,2.49,7.82,9.44,14.28,17.63,15.32ZM21.98,122.4c-16.86-3.1-15.27-18.03-15.8-31.6-.72-18.69-1.16-37.36-1.86-56.04-.17-4.48-1.09-8.77.07-13.23,1.38-5.3,7.66-10.3,12.95-11.09,24.98-1,49.95-4.73,74.91-5.72,6.98-.28,10.3.45,14.78,5.99,5.61,6.93,4.1,18.26,4.42,26.8.59,15.79,1.24,31.52,1.61,47.32.2,8.55,1.14,13.87-2.28,22.15-1.64,3.97-6.18,9.39-10.77,9.49l-78.04,5.94Z"/>
  <path class="cls-1" d="M59.9,46.33c-.46-2.09.06-7.14-2.84-7.33-1.83-.12-6.16,4.56-8.15,5.31-1.43,1.48-.73,7.06-.56,9.22.44,5.46,1.5,10.91,2.11,16.35,1.22,10.83,2.07,22.09,3.84,32.83.22,1.34.91,5.71,2.29,6.11.29.08,2.53.34,2.91.34,1.55,0,3.43-.51,5.07-.56,2.43-.07,6.1,1.06,7-2.43,1-3.89-1.97-14.25-2.74-18.72-1.08-6.24-2.15-12.82-1.08-19.14.49-2.9,1.45-7,4.76-3.62,6.56,6.68,9.93,26.52,8.85,35.63-.23,1.97-1.58,5.13-.51,6.77s4.18.47,5.74.42c2.36-.07,8.45.49,10.18-.56,1.74-1.05,1.34-5.78,1.24-7.72-.59-11.44-3.31-25.81-6.71-36.72-2.9-9.31-7.8-24.14-20.01-23.24-5,.37-8.24,3.55-11.41,7.07ZM67.42,104.25c-.63.64-7.45-1.65-8.74-.88l-.35-.38c-.4-5.75-1.52-11.41-2.15-17.13-.49-4.41-.62-8.88-1.11-13.29-.92-8.35-2.32-16.63-2.97-25.01l3.23-2.59c.57,1.98.68,8.51,2.69,9.37.94.41,1.96.16,2.68-.54,1.11-1.08,2.49-4.19,3.77-5.7,4.12-4.87,8.64-5.84,13.78-1.73,3.22,2.58,4.94,6.61,6.36,10.42,5.51,14.75,7.56,30.46,9.13,46.1l-8.33.27c.67-7.68.46-14.88-1.42-22.36-.81-3.21-1.99-7.34-3.14-10.42-1.71-4.58-7.99-14.54-13.83-9.92-3.99,3.15-4.01,14.45-3.62,19.17.69,8.29,3.13,16.36,4.03,24.61Z"/>
  <path class="cls-1" d="M43.97,105.8c.9-.97.58-2.89.62-4.13-2.12-18.51-2.8-37.26-5.1-55.75-.23-1.85-.26-6.21-2.79-6.11l-10.99,4.93c-.84.47-1.18,1.33-1.26,2.27,1.26,14.13,2.28,28.3,3.77,42.41.5,4.7,1.63,10.13,1.89,14.7.06,1.13-.65,1.75.13,2.83.73,1.01,2.12.89,3.23.83,2.2-.11,6.34-.69,8.51-1.17.61-.13,1.58-.36,2-.83ZM40.03,102.35c-2.23.25-4.46.34-6.72.27l-4.74-54.54,6.22-3.11,5.24,57.38Z"/>
  <path class="cls-1" d="M24.64,18.78c-.46.33-1.07.41-1.51.78-9.01,7.63.08,22.97,10.52,18.26,6.82-3.07,7.26-13.09,2.09-18.02-2.3-2.2-7.29-3.9-10.19-2.15-.54.33-.65.94-.9,1.12ZM28.95,34.3c-4.94-.84-7.13-8.54-3.68-12.03.76-.77,1.99-.93,3.07-.97,9.08-.33,8.88,14.4.61,13Z"/>
</svg>