<?xml version="1.0" encoding="UTF-8"?>
<svg id="Calque_1" data-name="Calque 1" xmlns="http://www.w3.org/2000/svg" viewBox="0 0 118.25 128.52">
  <defs>
    <style>
      .cls-1 {
        fill: #fff;
      }
    </style>
  </defs>
  <path class="cls-1" d="M20.36,128.39c1.5.19,3.5.13,5.03.07,24.12-1.02,48.26-4.5,72.38-5.57,12.92-.82,19.6-11.8,20.41-23.92.28-4.23-.43-9.32-.56-13.6-.47-15.35-.96-30.65-1.6-45.97-.5-12.03.68-30.21-12.44-36.08-5.25-2.34-8.85-1.67-14.28-1.32-24.73,1.64-49.53,3.59-74.2,5.9C7.95,10.37,1.08,15.88,0,23.89c.58,29.82,1.82,59.4,2.72,89.18,2.49,7.82,9.44,14.28,17.63,15.32ZM21.97,124.03c-16.86-3.1-15.27-18.03-15.8-31.6-.72-18.69-1.16-37.36-1.86-56.04-.17-4.48-1.09-8.77.07-13.23,1.38-5.3,7.66-10.3,12.95-11.09,24.98-1,49.95-4.73,74.91-5.72,6.98-.28,10.3.45,14.78,5.99,5.58,6.9,4.1,18.04,4.42,26.53.6,15.87,1.21,31.73,1.61,47.59.21,8.56,1.15,13.86-2.28,22.15-1.64,3.97-6.18,9.39-10.77,9.49l-78.04,5.94Z"/>
  <path class="cls-1" d="M56.89,99.01l.98.09c23.97-1.44,34.35-29.49,25.08-49.87-9.59-21.1-36.05-23.55-48.41-3.69-12.52,20.12-2.91,51.43,22.35,53.47ZM55.28,93.57c-15.96-1.66-23.66-20.34-21.09-34.79,2.89-16.23,18.11-28.53,33.85-19.19,22.53,13.36,14.3,56.8-12.76,53.98Z"/>
  <path class="cls-1" d="M92.84,32.91c7.8.15,8.47-13.26.7-14.52-9.97-1.61-9.28,14.35-.7,14.52Z"/>
</svg>