<?xml version="1.0" encoding="UTF-8"?>
<svg id="Calque_1" data-name="Calque 1" xmlns="http://www.w3.org/2000/svg" viewBox="0 0 137.57 124.98">
  <defs>
    <style>
      .cls-1 {
        fill: #dfa5f9;
      }
    </style>
  </defs>
  <path class="cls-1" d="M113.4,4.36l-2.84.54c-1.29,3.94-3.7,7.33-5.51,11.01-7.62,15.49-18.13,45.51-33.01,54.24-14.4,8.44-27.4-3.72-36.8-13.76C24,44.4,14.85,30.6,4.48,17.91l6.21,102.85.42.12c14.08-1.14,28.18-2.28,42.27-3.26,25.27-1.75,50.56-3.45,75.86-4.34,1.56.8.48,1.66-.84,1.87-6.78,1.08-14.72,1.54-21.65,2.19-18.57,1.73-37.22,3.17-55.82,4.61-12.9,1-26.74,2.56-39.56,2.98-4.04.13-4.57.21-5.01-3.93-.23-2.22-.11-4.8-.28-7.04C3.81,82.54,1.86,51.12.41,19.67c-.08-1.7-.89-5.73,0-7.06.19-.28.59-.57.9-.72C38.51,7.3,75.94,3.86,113.27.03c1.84-.06,3.43-.22,4.13,1.83,6.41,35.9,13.19,71.74,19.4,107.68.32,1.86,2.07,5.95-1.05,6.44-3.36.52-3.01-1.74-3.4-3.88-6.56-35.87-12.55-71.84-18.94-107.74ZM104.73,5.45L7.19,15.34c1.88,1.44,3.44,3.25,5.01,5.01,8.09,9.02,15.26,18.85,23.29,27.92,6.35,7.15,18.66,21.11,29.2,18.89,12.87-2.7,22.29-25.89,27.53-36.68,4.08-8.39,7.47-17.15,12.5-25.02Z"/>
</svg>