<?xml version="1.0" encoding="UTF-8"?>
<svg id="Calque_1" data-name="Calque 1" xmlns="http://www.w3.org/2000/svg" viewBox="0 0 185.87 176.2">
  <defs>
    <style>
      .cls-1 {
        fill: #fff;
      }

      .cls-2 {
        fill: #dfa5f9;
      }

      .cls-3 {
        fill: #9451b7;
      }

      .cls-4 {
        fill: #003a32;
      }
    </style>
  </defs>
  <path class="cls-4" d="M134.27,136.47l2.8-4.94-2.17-12.64c.9-.24,1.35.56,2.08.75,27.64,7.32,41.24-25.2,35.05-48-4.8-17.7-29.12-45.45-48-30.24-.79.64-1.49,1.54-2.29,2.17.06-2.06.62-4.34.53-6.39s-.89-7.4-1.41-9.45c-.73-2.81-5.91-3.32-8.37-3.49-19.61-1.31-47.79,8.39-65.85,16.28-8.04,3.51-27.1,12.86-31.62,20.19-2.24,3.64-.88,3.31.43,6.32,1.62,3.72,2.77,9.65,3.62,13.73,4.09,19.51,5.05,38.42,7.07,58.11.5,4.9,1.84,13.4,3.53,17.91,4.33,11.61,27.69,10.68,37.39,9.66,25.04-2.65,48.77-12.61,67.21-29.97ZM132.48,114.54c-.52,1.34-.6,2.23-.54,3.67.16,3.94,1.17,8.29,1.63,12.24-.09,1.91-3.78,5.16-5.26,6.39-12.75,10.52-31.58,19.18-47.61,22.77-11.41,2.56-38.1,6.28-46.92-2.9-1.97-2.05-2.1-4.78-3.38-6.64-.25-.37-.91-.57-.96-.83-.09-.5.92-5.34.99-6.55.49-8.27-.73-18.83-1.64-27.16-1.75-15.92-4.4-32.21-9.1-47.48,13.84.38,27.29-4.25,40.08-9.04,8.67-3.25,17.16-7,25.71-10.54l8.03,49.87c-.16.67-9.03,4.49-9.59,6.9-.11.47.16.87.12,1.24-.47,4.33,2.74,11.82,4.2,16.29,1.07,3.28.73,6.47,5.37,4.77,5.93-2.17,13.48-7.57,19.08-10.86,1.77-1.04,5.08-1.68,5.02-4.15-1.81-6.61-4.88-12.92-5.39-19.88-.05-.74.31-1.36.23-2.09-.12-1.21-1.05-2.24-2.28-2.31-2.39-.12-10.51,7.03-13.25,8.08.08-2.04-.09-4.06-.3-6.08-.69-6.54-1.87-13.6-2.97-20.11-1.32-7.82-2.89-15.59-4.78-23.28,10.15-4.2,20.23-8.92,29.26-15.24.3,3.69.93,7.34,1.34,11.01.2,1.72-.15,6.46,1.48,7.2,12.88-21.45,36.69-.85,43.95,14.5,6.6,13.95,5.81,33.51-4.74,45.33-7.41,8.3-17.95,8.28-27.79,4.89ZM112.86,111.8l-20.12,11.44-5.63-17.39c7.34-2.99,14.36-6.77,20.8-11.43.3.19.31.39.39.69.62,2.26.81,5,1.49,7.47.86,3.13,2.24,6.1,3.07,9.23ZM117.71,27.79c.28.31-2.06,2.57-2.43,2.84s-4.23,2.47-4.48,2.53c-1.08.28-2.54-.06-3.69.07-13.97,1.57-31.02,6.91-44.32,11.68-11.54,4.14-27.4,10.33-37.27,17.46-.73.53-3.85,3.37-4.11,3.42-.24.05-2.51-.47-2.78-.63-.5-.3-1.73-2-1.58-2.64.39-1.6,7.08-6.61,8.73-7.77,15.49-10.96,39.17-20.13,57.5-24.72,6.58-1.65,18.96-4.1,25.43-3.61,3,.23,6.03.91,9,1.36ZM102.13,38.12c-9.71,4.4-19.43,8.83-29.28,12.91-15.37,6.37-31.09,12.94-47.79,14.55l11.1-6.03c15.41-7.19,31.24-13.1,47.66-17.55,5.1-1.38,12.32-3.62,17.41-4.12.3-.03.96-.25.9.23Z"/>
  <path class="cls-2" d="M132.48,114.54c9.85,3.39,20.38,3.41,27.79-4.89,10.56-11.81,11.34-31.38,4.74-45.33-7.26-15.35-31.08-35.95-43.95-14.5-1.63-.74-1.28-5.48-1.48-7.2-.42-3.67-1.05-7.33-1.34-11.01-9.03,6.32-19.12,11.04-29.26,15.24,1.9,7.69,3.47,15.46,4.78,23.28,1.09,6.51,2.28,13.57,2.97,20.11.21,2.02.38,4.05.3,6.08,2.74-1.05,10.86-8.2,13.25-8.08,1.23.06,2.15,1.1,2.28,2.31.07.73-.29,1.35-.23,2.09.52,6.95,3.58,13.27,5.39,19.88.06,2.47-3.25,3.11-5.02,4.15-5.6,3.29-13.15,8.69-19.08,10.86-4.64,1.7-4.3-1.49-5.37-4.77-1.46-4.47-4.67-11.96-4.2-16.29.04-.37-.23-.77-.12-1.24.55-2.41,9.43-6.23,9.59-6.9l-8.03-49.87c-8.55,3.54-17.04,7.29-25.71,10.54-12.79,4.79-26.24,9.42-40.08,9.04,4.69,15.27,7.35,31.57,9.1,47.48.91,8.33,2.13,18.89,1.64,27.16-.07,1.21-1.08,6.05-.99,6.55.05.26.7.47.96.83,1.28,1.85,1.41,4.58,3.38,6.64,8.82,9.18,35.51,5.45,46.92,2.9,16.03-3.59,34.86-12.24,47.61-22.77,1.49-1.23,5.18-4.47,5.26-6.39-.45-3.95-1.46-8.29-1.63-12.24-.06-1.44.01-2.33.54-3.67ZM138.59,110.12c-2.23-.31-5.85-2.01-7.58-3.47-1.82-1.54-.69-1.15-.75-2.54-.04-.82-.97-3.53-1.19-4.74-2.11-11.41-5.45-25.76-5.73-37.16-.18-7.58,6.58-12.23,13.56-12.39,17.2-.4,26.29,18.17,24.55,33.56-1.44,12.74-7.22,28.9-22.86,26.75Z"/>
  <path class="cls-3" d="M117.71,27.79c-2.97-.45-6-1.13-9-1.36-6.47-.49-18.85,1.96-25.43,3.61-18.33,4.59-42.01,13.76-57.5,24.72-1.65,1.16-8.34,6.17-8.73,7.77-.16.63,1.08,2.34,1.58,2.64.27.16,2.54.67,2.78.63.26-.05,3.38-2.89,4.11-3.42,9.88-7.13,25.73-13.32,37.27-17.46,13.3-4.77,30.35-10.12,44.32-11.68,1.15-.13,2.61.21,3.69-.07.25-.06,4.09-2.25,4.48-2.53s2.71-2.52,2.43-2.84Z"/>
  <path class="cls-1" d="M112.86,111.8c-.83-3.13-2.21-6.1-3.07-9.23-.68-2.46-.87-5.2-1.49-7.47-.08-.3-.09-.5-.39-.69-6.44,4.66-13.46,8.44-20.8,11.43l5.63,17.39,20.12-11.44Z"/>
  <path class="cls-4" d="M102.13,38.12c.06-.49-.6-.26-.9-.23-5.09.51-12.31,2.74-17.41,4.12-16.42,4.45-32.24,10.36-47.66,17.55l-11.1,6.03c16.7-1.62,32.42-8.19,47.79-14.55,9.85-4.08,19.57-8.51,29.28-12.91Z"/>
  <path class="cls-4" d="M138.59,110.12c15.64,2.15,21.42-14.01,22.86-26.75,1.74-15.39-7.35-33.96-24.55-33.56-6.98.16-13.74,4.82-13.56,12.39.27,11.41,3.62,25.76,5.73,37.16.22,1.21,1.15,3.92,1.19,4.74.06,1.38-1.07,1,.75,2.54s5.35,3.16,7.58,3.47ZM140.76,106.86c-1.72-.07-7.04-2.04-7.62-3.73-2.61-13.44-5.36-26.85-7.38-40.41,3.51-13.08,17.81-11.84,25.39-2.84,7.02,8.34,7.74,18.46,5.37,28.83-1.87,8.18-5.69,18.57-15.76,18.15Z"/>
</svg>