<?xml version="1.0" encoding="UTF-8"?>
<svg id="Calque_1" data-name="Calque 1" xmlns="http://www.w3.org/2000/svg" viewBox="0 0 3089.46 1571.45">
  <defs>
    <style>
      .cls-1 {
        fill: #f9de69;
      }
    </style>
  </defs>
  <path class="cls-1" d="M0,0v501.64c43.74,19.3,92.45,22.76,138.13,6.39,17.55-6.29,33.4-14.74,47.72-26.54,1.02-.84,2.3-1.08,2.94.18,31.15,61.62,97.17,102.8,161.44,123.5,105.84,34.09,227.85,23.96,328.74-21.85,62.31-28.29,121.46-73.74,156.06-133.4.49-.84.95-1.3,1.45-2.02.46-.66.87-.27,1.48.72,19.79,31.57,64.54,37.13,98.32,27.62,32.96-9.28,44.33-29.69,45.78-30.19,1.12-.38,1.24.83,1.65,1.97,14.4,39.78,55.92,67.71,93.45,83.57,75.09,31.74,172.23,37.4,248.92,8.57,22.75-8.55,42.9-20.46,60.2-37.21.94-.91,1.35-2.05,2.44-1.95.4.04,25.09,24.43,80.11,14.77,30.35-5.33,58.73-17.74,81.17-38.62,12.71-11.83,22.01-25.39,25.63-42.77,28.82,21.26,78.52,21.4,112.69,20.41,74.96-3.81,175.86-27.02,239.27-67.88,13.25-8.54,24.62-18.38,33.59-31.32.54-.78,1.24.66,1.37,1.07,2.75,8.66,7.72,15.89,14.08,22.24,27.45,28.58,77.5,43.41,117.67,43.56-5.71,55.74,40.92,106.43,97.65,105.6,31.89-1.13,59.96-19.12,73.06-48.04,9.22-20.34,10.33-41.8,4.01-63.76,22.93,3.32,46.54-.17,65.9-11.68,11.18,14.54,43.05,40.67,58,49.98,66.22,41.24,140.68,53,217.62,54.24,37.07.6,75.91-3.84,110.9-16.18,19.88-7.01,38.65-13.71,57.88-21.96,12.67-5.44,24.31-11.46,37.87-15.64,15.02,12.74,31.55,22.76,49.89,31.41,57.99,27.35,119.01,46.86,182.06,58.69,13.63,2.56,26.22,3.33,39.13,4.41l1.17.1V0H0ZM603.21,529.78c-27.92,29.7-74.88,30.37-103.92,2.75-28.13-26.75-27.63-70.57,1.01-96.76,29.26-26.76,75.45-25.37,102.78,3.54,24.08,25.47,24.55,64.49.13,90.47ZM1125.46,459.67c-26.68,3.16-50.69-15.81-54.13-41.95-3.55-26.88,15.14-51.93,43.18-54.99,27.6-3.02,50.84,17.16,53.7,43.27,2.92,26.69-16.51,50.57-42.75,53.67Z"/>
</svg>