<?xml version="1.0" encoding="UTF-8"?>
<svg id="Calque_1" data-name="Calque 1" xmlns="http://www.w3.org/2000/svg" viewBox="0 0 3089.46 1571.45">
  <defs>
    <style>
      .cls-1 {
        fill: #90dd3e;
      }
    </style>
  </defs>
  <path class="cls-1" d="M0,0v980.39c.15-.22,1.32-.25,2.13,1.61,21.74,49.98,57.54,97.78,100.85,132.97,36.88,29.96,77.71,51.03,123.12,62.5,94.88,23.97,194.17-2.09,265.05-69.54,61.19-58.23,94.37-137.18,100.8-221.7,20.06,26.89,56.1,34.09,86.88,36.12,26.52,1.14,51.98-.94,78.37-6.22,72.6-14.53,141.51-44.15,201.97-86.8,23.62-16.66,44.59-35.35,63.18-57.12.46-.53,1.6-1.09,1.79-.65l.81,1.96c11.7,28.42,28.38,53.57,49.51,76.05,85.16,90.63,229.09,123.47,343.66,73.3,64.83-28.95,113.24-82.14,126.24-153.58,102.28,68.82,244.39,80.74,359.4,45.7,81.93-25.26,159.33-76.17,195.92-156.58,13.31,41.89,42.51,74.24,74.73,101.49,84.68,70.1,209.35,115.01,315.78,139.38,142.6,32.65,303.23,42.78,447.66,18.08,52.02-8.9,104.74-23.46,151.63-45.86V0H0Z"/>
</svg>