<?xml version="1.0" encoding="UTF-8"?>
<svg id="Calque_1" data-name="Calque 1" xmlns="http://www.w3.org/2000/svg" viewBox="0 0 3089.46 1571.45">
  <defs>
    <style>
      .cls-1 {
        fill: #efc700;
      }
    </style>
  </defs>
  <path class="cls-1" d="M0,0v313.62h2.18v325.14c0,5.23-1.97,10.58,3.02,13.8,23.62,15.24,50.45,22.24,78.8,22.99,42.12,1.11,131.63-11.43,165.59-29.85l1.89-1.02c.39-.21,1.46.29,1.21.32-15.85,14.73-30.27,29.84-41.84,48.03-33.84,53.16-51.2,119.08-14.15,175.59,9.9,15.1,23.69,26.38,39.72,34.92,38.68,20.6,83.55,24.11,125.75,13.15,32.28-8.38,59.64-24.19,85.7-44.51,28.38-22.12,50.69-49.82,62.08-84.49.14-.43.53-1.37.66-1.68.19-.47,2.03-.1,2.59.39,8.76,7.68,21.23,13.03,32.55,17.13,26.97,9.76,54.51,9.81,81.09-.79,14.66-5.84,28.19-13.54,36.07-27.76l1.78-.79c30.05,49.59,96.45,72.27,150.57,80.6,126.89,19.54,283.03-16.39,388.67-90.08,38.77-27.04,76.53-64.02,93.47-108.51.16-.41.51-2.07.61-2.45.08-.32.41-.18.67.06,6.95,6.48,22.3,14.51,31.83,18.22,42.34,16.5,92.08,19.78,137.44,16.79,69.87-4.6,137.88-22.1,200.86-52.38,32.13-15.45,66.87-37.66,91.74-64.15,1.53-1.62,1.48-.9.63,1.26-17.03,76.68,11.35,151.12,67.33,204.4,28.94,27.54,62.93,48.23,100.53,62.31,79.07,29.61,167.08,29.48,245.9-.85,79.4-30.55,146.37-93.41,165.5-178.63,9.83,25.17,27.65,45.77,50.79,60.7,44.23,28.52,100.16,33.58,149.22,14.53,47.59-18.48,83.74-60.74,84.84-113.05,0-.44.05-3.38.23-3.04l1.36,2.65,1.37,2.64c21.96,42.33,63.91,80.12,102.81,106.47,56.47,38.26,119.32,65.53,185.75,81.4,54.15,12.93,119.66,18.71,172.66,3.15V0H0ZM930.56,664.95c-43.52-3.24-76.64-40.7-75.28-83.58.8-25.12,14.22-46.8,35.9-58.49,6.75-3.64,13.92-8.22,21.49-9.86,45.14-9.79,91.91,27.54,94.39,76.74,2.18,43.28-32.13,78.5-76.5,75.19ZM1936.11,612.67c-6.49,22.4-28.31,36.88-51.96,33.38-14.72-2.18-25.96-11.47-31.29-22.23-7.1-14.33-5.77-29.99,2.53-42.33,2.95-4.38,6.39-9.09,10.07-12.6,8.78-8.35,21.15-11.35,33.15-10.38,27.12,2.19,45.07,28.06,37.51,54.16Z"/>
</svg>