<?xml version="1.0" encoding="UTF-8"?>
<svg id="Calque_1" data-name="Calque 1" xmlns="http://www.w3.org/2000/svg" viewBox="0 0 3089.46 1571.45">
  <defs>
    <style>
      .cls-1 {
        fill: #fff;
      }
    </style>
  </defs>
  <path class="cls-1" d="M0,355.51V0h3089.46v420.11c-24.94-1.6-53.46-17.79-70.57-36.5-9.02-9.87-13.37-21.96-17.9-34.9-37.02,29.8-85.85,47.1-133.06,40.79-38.9-5.2-73.13-28.64-82.22-68.31-53.68,18.61-114.25,13.05-158.58-21.3-32.18-24.94-51.52-61.35-53.68-103.02-58.54,53.22-127.23,86.91-202.5,107.98-139.98,38.38-295.3,27.93-430.84-22.96-57.19-21.47-110.85-50.45-159.32-86.94-.65-.49-2.1-1.97-2.25-1.48s-.69,2.13-.64,3.1c1.43,28.85-12.99,57.58-35.65,73.79-43.24,30.95-102.68,18.6-127.62-28.15-.38-.72-1.28-2.2-3.52.38-56.03,64.28-142.16,105.77-229.61,108.09-117.63,3.12-222.33-51.64-296.02-142.31-8.94,31.7-32.17,55.61-62.79,64.87l-1.84.56-1.75.25c-15.35,2.21-30.33,1.66-44.81-4.56l-5.05-2.17c-12.37,31.63-32.02,60.16-58.6,82.18l-1.23,1.02-1.28,1.04c-44.49,36.08-103.07,51.91-159.75,42.23l-1.95-.33c-71.93-12.29-130.84-62.96-154.99-131.72l-1.63-.19C449.56,447.24,194.9,496.99,3.14,356.74c-.65-.48-2.67-1.12-3.14-1.22ZM2811.22,194.81c-22.37,4.96-34.79,26.92-29.63,47.87,5.08,20.65,25.95,33.5,46.65,28.93,21.14-4.66,34.6-25.7,30.03-46.65-4.57-20.95-24.91-35.06-47.05-30.15Z"/>
</svg>