<?xml version="1.0" encoding="UTF-8"?>
<svg id="Calque_1" data-name="Calque 1" xmlns="http://www.w3.org/2000/svg" viewBox="0 0 3089.46 1571.45">
  <defs>
    <style>
      .cls-1 {
        fill: #03177a;
      }
    </style>
  </defs>
  <path class="cls-1" d="M0,0v575.37h1.05l.03,637.9c91.14,43.99,195.81,30.77,278.7-26.11,41.18-28.35,74.89-65.44,99.9-108.61.55-.95,1.97-2.54,2.39-2.01l2.21,2.77c43.16,54.14,104.31,89.2,170.86,107.2,201.17,54.42,447.08-42.41,555.71-220.56.43-.71,2.04-1.34,2.61-.94,141.97,99.6,344.6,139.97,513.71,101.87,63.11-14.56,124.01-40.21,172.88-83.12,74.07,56.53,165.34,86.27,256.42,99.63,128.87,18.55,266.37,4.99,392.27-27.35,132.54-34.05,258.84-88.87,374.4-162.07,99.7-63.15,193-142.51,266.32-234.25V0H0Z"/>
</svg>