<?xml version="1.0" encoding="UTF-8"?>
<svg id="Calque_1" data-name="Calque 1" xmlns="http://www.w3.org/2000/svg" viewBox="0 0 3089.46 1571.45">
  <defs>
    <style>
      .cls-1 {
        fill: #001ce5;
      }
    </style>
  </defs>
  <path class="cls-1" d="M0,0v720.84l128.7,32.82c48.35,12.33,96.04,21.98,145.61,26.7l87.92,8.37c76.31,7.27,151.8,12.05,228.35,15.62,54.81,2.56,108.6,8.17,162.68,18.16,32.29,50.48,87.83,85.04,142.44,107.69,79.49,31.83,165.65,43.71,250.76,34.48,52.99-6.67,106.79-21.62,150.13-54.8,64.02,73.56,161.35,112.24,256.94,85.59,45.45-12.67,84.9-38.86,115.78-74.18.39-.44,1.31-1.13,1.66-1.36.24-.16,1.02.92,1.2,1.23,15.34,26.53,34.96,49.34,58.11,69.6,82.89,72.53,203.08,108.23,311.35,119.26,99.59,10.14,199.91,2.59,296.79-22.31,108.59-27.91,228.24-84.93,297.07-176.49,18.68,12.61,36.51,23.96,55.81,34.68,72.16,40.08,148.93,70.13,229.19,89.89,55.25,12.86,113.39,21.91,168.96,14.32V0H0ZM2098.1,949.48c-3.79,28.15-29.28,48.23-57.26,45.84-28-2.4-49.81-26.48-48.24-55.23,1.61-29.44,26.43-50.85,55.3-48.93,2.07.14,5.41-1.44,8.01-.89,28.3,6.05,45.86,31.98,42.19,59.21ZM2247.8,932.23c-10.29,18.03-35.07,22.78-51.27,8.68-11.03-9.6-14.3-24.61-8.62-37.94,5.54-13,18.41-20.5,33.28-19.83,2.02.09,5.13-.92,7.72-.04,20.98,7.2,29.43,30.65,18.89,49.13Z"/>
</svg>